<svg width="14" height="16" viewBox="0 0 14 16" fill="none" xmlns="http://www.w3.org/2000/svg">
<path d="M4.21126 4.46234C4.31846 4.68154 4.43366 4.87354 4.47846 5.10234C4.60326 5.73754 4.88966 6.30874 5.31846 6.78074C5.59046 7.07994 5.57446 7.38714 5.48166 7.69594C5.40166 7.96314 5.42566 8.15834 5.60326 8.36314C5.84006 8.63834 6.07686 8.91194 6.40486 9.08634C6.78406 9.28954 7.31526 9.25434 7.74406 8.91994C8.09446 8.64634 8.35686 8.29594 8.60006 7.92794C8.64326 7.86394 8.62566 7.80794 8.61286 7.74714C8.59686 7.67194 8.58246 7.59674 8.56646 7.52314C8.50086 7.22074 8.59046 6.98074 8.79686 6.74394C9.20966 6.26874 9.48486 5.71514 9.61286 5.09594C9.65926 4.87194 9.77766 4.68634 9.90246 4.48794C9.89926 4.56474 9.90246 4.64314 9.89126 4.71994C9.77286 5.51034 9.86246 6.29114 10.0033 7.06554C10.0625 7.38394 10.1665 7.69754 10.2945 7.99994C10.3697 8.17594 10.5489 8.17274 10.6865 8.22874C11.1841 8.42714 11.6673 8.65114 12.1249 8.93274C12.5393 9.18714 12.7489 9.57434 12.8961 10.0111C13.1265 10.6927 13.3281 11.3823 13.4657 12.0911C13.6161 12.8687 13.6753 13.6495 13.6305 14.4399C13.6097 14.7855 13.3921 14.9919 13.1025 15.1007C12.4161 15.3583 11.7089 15.5583 10.9889 15.7055C10.5649 15.7919 10.1393 15.8575 9.71686 15.9391C9.39686 16.0015 9.08326 15.9935 8.76486 15.9951C7.92646 16.0015 7.08646 15.9839 6.24806 16.0015C5.44166 16.0175 4.64966 15.9327 3.85606 15.7839C3.03846 15.6319 2.23206 15.4495 1.44486 15.1887C1.22246 15.1151 1.00326 15.0319 0.787261 14.9407C0.452861 14.7999 0.400061 14.4991 0.376061 14.1983C0.339261 13.7295 0.424061 13.2655 0.473661 12.8031C0.540861 12.1807 0.648061 11.5631 0.801661 10.9551C0.945661 10.3839 1.12006 9.82074 1.43366 9.31994C1.68486 8.91834 2.09126 8.69754 2.52806 8.53754C2.89126 8.40634 3.25606 8.27994 3.61926 8.14714C3.70246 8.11674 3.76166 8.06394 3.80006 7.96794C4.01766 7.40954 4.14246 6.83514 4.19686 6.23674C4.24486 5.71834 4.26726 5.20474 4.19046 4.68794C4.18246 4.62234 4.16806 4.55194 4.21126 4.46234ZM6.56166 13.7135C6.56166 13.8607 6.56806 13.9823 6.56006 14.1039C6.55206 14.2255 6.59046 14.2783 6.72006 14.2719C6.91206 14.2639 7.10406 14.2639 7.29606 14.2719C7.42726 14.2783 7.46086 14.2207 7.45766 14.1023C7.45126 13.8719 7.46246 13.6415 7.45286 13.4111C7.44806 13.2735 7.48806 13.2143 7.63686 13.2207C7.86726 13.2303 8.09766 13.2175 8.32806 13.2255C8.45446 13.2303 8.50086 13.1791 8.49926 13.0575C8.49606 12.8655 8.49126 12.6735 8.50086 12.4831C8.50886 12.3471 8.44326 12.3215 8.32806 12.3231C8.11046 12.3279 7.89286 12.3247 7.67526 12.3279C7.51686 12.3311 7.44166 12.2703 7.45126 12.0991C7.46406 11.8767 7.45286 11.6511 7.45766 11.4271C7.45926 11.3215 7.42406 11.2783 7.31206 11.2815C7.11366 11.2879 6.91526 11.2863 6.71686 11.2815C6.60486 11.2799 6.55526 11.3167 6.55846 11.4367C6.56486 11.6671 6.55206 11.8975 6.56326 12.1279C6.56966 12.2751 6.50246 12.3215 6.37126 12.3215C6.20486 12.3215 6.03846 12.3231 5.87206 12.3247C5.51526 12.3295 5.51526 12.3311 5.51686 12.6943C5.51846 13.2239 5.51846 13.2207 6.04486 13.2255C6.20966 13.2271 6.41926 13.1535 6.52486 13.2607C6.63366 13.3647 6.54406 13.5759 6.56166 13.7135ZM4.88486 3.73594C4.66726 3.73594 4.44966 3.73114 4.23206 3.73754C4.08646 3.74234 4.02726 3.68794 4.02246 3.53754C4.00966 3.16634 3.98406 2.79194 4.03526 2.42554C4.15846 1.55354 4.61926 0.577539 5.76806 0.227139C6.28486 0.0687393 6.80486 -0.0496607 7.33766 0.0191393C8.33926 0.147139 9.22086 0.519939 9.71046 1.47514C10.0257 2.08794 10.0241 2.76794 9.99686 3.44154C9.99526 3.50234 10.0049 3.56474 9.88966 3.54234C9.80006 3.52474 9.78566 3.64154 9.77126 3.70874C9.74886 3.81434 9.71846 3.83034 9.61766 3.77754C9.18086 3.54874 8.89446 3.19194 8.71846 2.74234C8.67046 2.61914 8.64966 2.59674 8.52646 2.68314C7.72806 3.23994 6.84006 3.55194 5.87526 3.67994C5.54566 3.72474 5.21606 3.73914 4.88486 3.73594Z" fill="#DBDDE0"/>
</svg>
