<svg width="16" height="16" viewBox="0 0 16 16" fill="none" xmlns="http://www.w3.org/2000/svg">
<path d="M14.2683 15.2881C14.2043 14.6753 14.1883 14.0577 14.1275 13.4433C14.0363 12.5233 13.9051 11.6081 13.6331 10.7201C13.4859 10.2449 13.2619 9.83208 12.8155 9.56968C12.3883 9.31848 11.9227 9.16968 11.4555 9.02408C11.2923 8.97288 11.3211 9.08808 11.3307 9.17128C11.3739 9.57288 11.3371 9.96968 11.2539 10.3617C11.2267 10.4881 11.2699 10.5457 11.3787 10.6081C11.8395 10.8657 12.1019 11.2593 12.1307 11.7921C12.1595 12.3409 12.0475 12.8801 12.0139 13.4241C11.9915 13.7937 11.9515 14.1649 11.7963 14.5089C11.6091 14.9249 11.2859 15.0897 10.8443 15.0049C10.6763 14.9729 10.5659 14.8961 10.5931 14.7105C10.6203 14.5281 10.7467 14.4641 10.9147 14.4977C11.1259 14.5393 11.2491 14.4401 11.3355 14.2673C11.3947 14.1473 11.4267 14.0161 11.4395 13.8833C11.5019 13.2705 11.5691 12.6577 11.6187 12.0433C11.6635 11.4881 11.3659 11.0673 10.8731 10.9553C10.3643 10.8401 9.9259 11.0705 9.7163 11.5889C9.5483 12.0033 9.4107 12.4305 9.2507 12.8497C9.1595 13.0865 9.0811 13.3249 9.0331 13.5729C8.9707 13.8945 9.0347 14.0129 9.3323 14.1473C9.4747 14.2113 9.5435 14.3121 9.4939 14.4641C9.4443 14.6177 9.3323 14.6609 9.1787 14.6321C8.7403 14.5489 8.4859 14.2369 8.4939 13.7873C8.4971 13.6033 8.5243 13.4257 8.5755 13.2497C8.7643 12.5969 9.0123 11.9649 9.2651 11.3345C9.4923 10.7681 9.9451 10.4561 10.5611 10.4129C10.6811 10.4033 10.7323 10.3697 10.7547 10.2529C10.8299 9.86408 10.8411 9.47528 10.8059 9.08168C10.7899 8.89608 10.7179 8.79528 10.5243 8.76488C10.3675 8.74088 10.2107 8.68808 10.0635 8.62728C9.9163 8.56808 9.8523 8.58568 9.8011 8.75208C9.6203 9.35688 9.3675 9.93448 9.0747 10.4945C8.9339 10.7649 8.7707 11.0241 8.5899 11.3377C8.5179 10.9409 8.4635 10.6033 8.3931 10.2673C8.3611 10.1169 8.3643 9.98088 8.4299 9.83848C8.4667 9.75688 8.5643 9.66088 8.4667 9.57288C8.3115 9.43208 8.1419 9.30888 7.9771 9.17928C7.9723 9.17448 7.9499 9.18568 7.9403 9.19368C7.7803 9.33128 7.5979 9.44968 7.4731 9.61288C7.3979 9.71048 7.5435 9.83848 7.5755 9.95688C7.5819 9.98408 7.5963 10.0129 7.5931 10.0385C7.5259 10.4513 7.4555 10.8625 7.3803 11.3137C7.3275 11.2513 7.3035 11.2273 7.2875 11.2001C6.8651 10.5185 6.5211 9.80168 6.2603 9.04328C6.2075 8.88808 6.2123 8.64808 6.0795 8.59848C5.9547 8.55208 5.7675 8.67528 5.6075 8.72008C5.5243 8.74408 5.4507 8.76648 5.4187 8.86408C5.3579 9.05288 5.2715 9.23208 5.2267 9.42088C4.9323 10.6497 5.0059 11.8657 5.3851 13.0673C5.4427 13.2497 5.5115 13.3489 5.7195 13.3889C6.1211 13.4689 6.3371 13.9089 6.1995 14.2897C6.0555 14.6913 5.6219 14.8801 5.2443 14.7073C4.8635 14.5345 4.7003 14.0657 4.9211 13.7169C5.0011 13.5905 4.9915 13.4929 4.9483 13.3681C4.5419 12.2017 4.4331 11.0081 4.6203 9.78568C4.6635 9.50408 4.7579 9.23528 4.8219 8.93768C4.2635 9.10088 3.7275 9.23688 3.2443 9.51848C2.8891 9.72488 2.6139 9.99528 2.4587 10.3889C2.2731 10.8609 2.1611 11.3505 2.0667 11.8465C1.8491 12.9985 1.7819 14.1681 1.6939 15.3345C1.6699 15.6529 1.8123 15.8497 2.0651 15.9985H13.8875C14.1883 15.8561 14.3035 15.6289 14.2683 15.2881ZM5.3275 5.44808C5.4363 5.47688 5.4875 5.52968 5.5291 5.62888C5.7739 6.21448 6.0763 6.76488 6.5259 7.22248C6.8811 7.58568 7.2923 7.85768 7.8139 7.91048C8.4699 7.97768 8.9819 7.68488 9.4251 7.24168C9.8763 6.78888 10.1899 6.24488 10.4347 5.65608C10.4683 5.57608 10.4795 5.47528 10.6011 5.46408C11.0379 5.42248 11.3787 4.73128 11.3067 4.31048C11.2859 4.19048 11.2411 4.08008 11.1099 4.07208C10.9467 4.06088 10.9771 3.97448 11.0011 3.87368C11.0875 3.51208 11.1243 3.14248 11.1419 2.82568C11.1531 2.50408 11.1227 2.23688 11.0587 1.98088C10.9611 1.59368 10.7611 1.26088 10.3979 1.07528C10.1835 0.964882 10.0187 0.843282 9.9467 0.604882C9.9195 0.512082 9.8283 0.451282 9.7531 0.388882C9.4747 0.158482 9.1451 0.0576819 8.8027 0.0240819C7.7771 -0.0767181 6.8203 0.142482 5.9739 0.739282C5.3899 1.14888 4.9883 1.68968 4.9067 2.42568C4.8523 2.91048 4.8795 3.39048 4.9707 3.86888C4.9899 3.97128 5.0315 4.07848 4.8507 4.07528C4.7691 4.07368 4.7163 4.14248 4.6891 4.22248C4.5387 4.65128 4.8859 5.33128 5.3275 5.44808Z" fill="#DBDDE0"/>
</svg>
