<svg width="14" height="16" viewBox="0 0 14 16" fill="none" xmlns="http://www.w3.org/2000/svg">
<path d="M6.32961 1.3344C6.32961 2.0704 5.73281 2.6688 4.99521 2.6688C4.25761 2.6688 3.66081 2.072 3.66081 1.3344C3.66081 0.5968 4.26081 0 4.99681 0C5.73281 0 6.32961 0.5984 6.32961 1.3344ZM10.3936 12.256C10.136 12.1328 9.82881 12.2416 9.70561 12.4992C8.98881 13.9968 7.45281 14.9648 5.79201 14.9648C3.40161 14.9648 1.45761 13.0208 1.45761 10.6304C1.45761 9.2736 2.07521 8.0192 3.15361 7.1904C3.38081 7.016 3.42241 6.6928 3.24801 6.4656C3.07521 6.24 2.75041 6.1984 2.52481 6.3712C1.18881 7.3984 0.424006 8.9504 0.424006 10.632C0.424006 13.5904 2.83201 16 5.79201 16C7.84641 16 9.74881 14.8 10.6368 12.9456C10.76 12.688 10.6496 12.3792 10.3936 12.256ZM13.5024 12.6544L10.7216 8.1936C10.5888 7.9792 10.3264 7.9296 10.0448 7.9408H6.54401C6.40161 7.9408 6.28641 7.9248 6.28641 7.9072L6.28961 7.8752V7.3072C6.28961 7.1648 6.31201 7.0544 6.34081 7.056C6.35681 7.0576 6.37441 7.0592 6.39361 7.0592H9.44801C9.79201 7.0592 10.072 6.7808 10.072 6.4352C10.072 6.0912 9.79361 5.8112 9.44801 5.8112H6.39361C6.37441 5.8112 6.35841 5.8128 6.34081 5.816C6.31201 5.8176 6.28961 5.7072 6.28961 5.5648V4.1056C6.28961 3.5504 5.83841 3.1008 5.28481 3.1008H5.00641C4.45281 3.1008 4.00321 3.5504 4.00321 4.1056V9.1536C4.00321 9.7072 4.45281 10.1584 5.00641 10.1584H9.81441C9.95681 10.1584 10.1344 10.2544 10.2144 10.3728C10.6976 11.1024 12.2448 13.44 12.2448 13.44C12.4304 13.7392 12.8656 13.808 13.2128 13.5904C13.56 13.3744 13.6896 12.9552 13.5024 12.6544Z" fill="#DBDDE0"/>
</svg>
