<svg width="14" height="10" viewBox="0 0 14 10" fill="none" xmlns="http://www.w3.org/2000/svg">
<path d="M14 1.43367C14 0.795269 13.48 0.275269 12.8416 0.275269H1.1584C0.52 0.275269 0 0.795269 0 1.43367V2.08327H14V1.43367ZM0.00159998 4.03047V8.57287C0.00159998 9.21287 0.52 9.73287 1.16 9.73287H12.84C13.48 9.73287 14 9.21287 14 8.57287V4.03047H0.00159998ZM4.2992 8.08007C4.2992 8.12807 4.2592 8.16647 4.2128 8.16647H1.72C1.6736 8.16647 1.6336 8.12807 1.6336 8.08007V7.26887C1.6336 7.22247 1.6736 7.18247 1.72 7.18247H4.2128C4.2592 7.18247 4.2992 7.22247 4.2992 7.26887V8.08007Z" fill="#DBDDE0"/>
</svg>
